<svg width="3213" height="2075" viewBox="0 0 3213 2075" fill="none" xmlns="http://www.w3.org/2000/svg">
<path d="M132 134H3082V1942H132V134Z" fill="#FF7272"/>
<path d="M265.56 0L396.24 130.68L262.68 264.24L132 133.56L265.56 0Z" fill="#FF7272"/>
<path d="M265.56 1810L396.24 1940.68L262.68 2074.24L132 1943.56L265.56 1810Z" fill="#FF7272"/>
<path d="M535.56 0L666.24 130.68L532.68 264.24L402 133.56L535.56 0Z" fill="#FF7272"/>
<path d="M535.56 1810L666.24 1940.68L532.68 2074.24L402 1943.56L535.56 1810Z" fill="#FF7272"/>
<path d="M805.56 0L936.24 130.68L802.68 264.24L672 133.56L805.56 0Z" fill="#FF7272"/>
<path d="M805.56 1810L936.24 1940.68L802.68 2074.24L672 1943.56L805.56 1810Z" fill="#FF7272"/>
<path d="M1075.56 0L1206.24 130.68L1072.68 264.24L942 133.56L1075.56 0Z" fill="#FF7272"/>
<path d="M1075.56 1810L1206.24 1940.68L1072.68 2074.24L942 1943.56L1075.56 1810Z" fill="#FF7272"/>
<path d="M1345.56 0L1476.24 130.68L1342.68 264.24L1212 133.56L1345.56 0Z" fill="#FF7272"/>
<path d="M1345.56 1810L1476.24 1940.68L1342.68 2074.24L1212 1943.56L1345.56 1810Z" fill="#FF7272"/>
<path d="M1615.56 0L1746.24 130.68L1612.68 264.24L1482 133.56L1615.56 0Z" fill="#FF7272"/>
<path d="M1615.56 1810L1746.24 1940.68L1612.68 2074.24L1482 1943.56L1615.56 1810Z" fill="#FF7272"/>
<path d="M1885.56 0L2016.24 130.68L1882.68 264.24L1752 133.56L1885.56 0Z" fill="#FF7272"/>
<path d="M1885.56 1810L2016.24 1940.68L1882.68 2074.24L1752 1943.56L1885.56 1810Z" fill="#FF7272"/>
<path d="M2155.56 0L2286.24 130.68L2152.68 264.24L2022 133.56L2155.56 0Z" fill="#FF7272"/>
<path d="M2155.56 1810L2286.24 1940.68L2152.68 2074.24L2022 1943.56L2155.56 1810Z" fill="#FF7272"/>
<path d="M2425.56 0L2556.24 130.68L2422.68 264.24L2292 133.56L2425.56 0Z" fill="#FF7272"/>
<path d="M2425.56 1810L2556.24 1940.68L2422.68 2074.24L2292 1943.56L2425.56 1810Z" fill="#FF7272"/>
<path d="M2695.56 0L2826.24 130.68L2692.68 264.24L2562 133.56L2695.56 0Z" fill="#FF7272"/>
<path d="M2695.56 1810L2826.24 1940.68L2692.68 2074.24L2562 1943.56L2695.56 1810Z" fill="#FF7272"/>
<path d="M2965.56 0L3096.24 130.68L2962.68 264.24L2832 133.56L2965.56 0Z" fill="#FF7272"/>
<path d="M2965.56 1810L3096.24 1940.68L2962.68 2074.24L2832 1943.56L2965.56 1810Z" fill="#FF7272"/>
<path d="M3081.56 134L3212.24 264.68L3078.68 398.24L2948 267.56L3081.56 134Z" fill="#FF7272"/>
<path d="M133.56 134L264.24 264.68L130.68 398.24L0 267.56L133.56 134Z" fill="#FF7272"/>
<path d="M3081.56 384L3212.24 514.68L3078.68 648.24L2948 517.56L3081.56 384Z" fill="#FF7272"/>
<path d="M133.56 384L264.24 514.68L130.68 648.24L0 517.56L133.56 384Z" fill="#FF7272"/>
<path d="M3081.56 634L3212.24 764.68L3078.68 898.24L2948 767.56L3081.56 634Z" fill="#FF7272"/>
<path d="M133.56 634L264.24 764.68L130.68 898.24L0 767.56L133.56 634Z" fill="#FF7272"/>
<path d="M3081.56 884L3212.24 1014.68L3078.68 1148.24L2948 1017.56L3081.56 884Z" fill="#FF7272"/>
<path d="M133.56 884L264.24 1014.68L130.68 1148.24L0 1017.56L133.56 884Z" fill="#FF7272"/>
<path d="M3081.56 1134L3212.24 1264.68L3078.68 1398.24L2948 1267.56L3081.56 1134Z" fill="#FF7272"/>
<path d="M133.56 1134L264.24 1264.68L130.68 1398.24L0 1267.56L133.56 1134Z" fill="#FF7272"/>
<path d="M3081.56 1384L3212.24 1514.68L3078.68 1648.24L2948 1517.56L3081.56 1384Z" fill="#FF7272"/>
<path d="M133.56 1384L264.24 1514.68L130.68 1648.24L0 1517.56L133.56 1384Z" fill="#FF7272"/>
<path d="M3081.56 1634L3212.24 1764.68L3078.68 1898.24L2948 1767.56L3081.56 1634Z" fill="#FF7272"/>
<path d="M133.56 1634L264.24 1764.68L130.68 1898.24L0 1767.56L133.56 1634Z" fill="#FF7272"/>
</svg>
